<mxfile host="app.diagrams.net" modified="2024-02-08T01:55:27.085Z" agent="Mozilla/5.0 (Macintosh; Intel Mac OS X 10_15_7) AppleWebKit/537.36 (KHTML, like Gecko) Chrome/121.0.0.0 Safari/537.36" etag="hEvFn3wWV45LjNceI0us" version="23.1.2" type="device">
  <diagram name="Page-1" id="X2i5_Cvnhs5wvoKZlx58">
    <mxGraphModel dx="1674" dy="795" grid="1" gridSize="10" guides="1" tooltips="1" connect="1" arrows="1" fold="1" page="1" pageScale="1" pageWidth="827" pageHeight="1169" math="0" shadow="0">
      <root>
        <mxCell id="0" />
        <mxCell id="1" parent="0" />
        <mxCell id="rtIWODCKq_-6XiSgHXo_-2" value="&lt;p style=&quot;margin:0px;margin-top:4px;text-align:center;&quot;&gt;&lt;i&gt;&amp;lt;&amp;lt;Interface&amp;gt;&amp;gt;&lt;/i&gt;&lt;br&gt;&lt;b&gt;Transforms&lt;/b&gt;&lt;/p&gt;&lt;hr style=&quot;text-align: center;&quot; size=&quot;1&quot;&gt;&lt;p style=&quot;margin:0px;margin-left:4px;&quot;&gt;&lt;/p&gt;&lt;div style=&quot;text-align: justify;&quot;&gt;&lt;span style=&quot;background-color: initial;&quot;&gt;+ get_train_transforms&amp;nbsp;&lt;/span&gt;&lt;/div&gt;&lt;div style=&quot;text-align: justify;&quot;&gt;&lt;span style=&quot;background-color: initial;&quot;&gt;+ get_test_transforms&lt;/span&gt;&lt;/div&gt;&lt;p&gt;&lt;/p&gt;" style="verticalAlign=top;align=left;overflow=fill;fontSize=12;fontFamily=Helvetica;html=1;whiteSpace=wrap;" vertex="1" parent="1">
          <mxGeometry x="310" y="470" width="140" height="80" as="geometry" />
        </mxCell>
        <mxCell id="rtIWODCKq_-6XiSgHXo_-3" style="edgeStyle=orthogonalEdgeStyle;rounded=0;orthogonalLoop=1;jettySize=auto;html=1;exitX=0.5;exitY=1;exitDx=0;exitDy=0;" edge="1" parent="1" source="rtIWODCKq_-6XiSgHXo_-2" target="rtIWODCKq_-6XiSgHXo_-2">
          <mxGeometry relative="1" as="geometry" />
        </mxCell>
        <mxCell id="rtIWODCKq_-6XiSgHXo_-12" value="" style="group" vertex="1" connectable="0" parent="1">
          <mxGeometry x="130" y="630" width="460" height="50" as="geometry" />
        </mxCell>
        <mxCell id="rtIWODCKq_-6XiSgHXo_-8" value="ImageClassificationTransforms" style="html=1;whiteSpace=wrap;" vertex="1" parent="rtIWODCKq_-6XiSgHXo_-12">
          <mxGeometry width="180" height="50" as="geometry" />
        </mxCell>
        <mxCell id="rtIWODCKq_-6XiSgHXo_-9" value="ImageSegmentationTransforms" style="html=1;whiteSpace=wrap;" vertex="1" parent="rtIWODCKq_-6XiSgHXo_-12">
          <mxGeometry x="280" width="180" height="50" as="geometry" />
        </mxCell>
        <mxCell id="rtIWODCKq_-6XiSgHXo_-13" value="" style="endArrow=block;dashed=1;endFill=0;endSize=12;html=1;rounded=0;exitX=0.5;exitY=0;exitDx=0;exitDy=0;entryX=0.5;entryY=1;entryDx=0;entryDy=0;" edge="1" parent="1" source="rtIWODCKq_-6XiSgHXo_-8" target="rtIWODCKq_-6XiSgHXo_-2">
          <mxGeometry width="160" relative="1" as="geometry">
            <mxPoint x="210" y="610" as="sourcePoint" />
            <mxPoint x="360" y="560" as="targetPoint" />
          </mxGeometry>
        </mxCell>
        <mxCell id="rtIWODCKq_-6XiSgHXo_-14" value="" style="endArrow=block;dashed=1;endFill=0;endSize=12;html=1;rounded=0;exitX=0.5;exitY=0;exitDx=0;exitDy=0;entryX=0.5;entryY=1;entryDx=0;entryDy=0;" edge="1" parent="1" source="rtIWODCKq_-6XiSgHXo_-9" target="rtIWODCKq_-6XiSgHXo_-2">
          <mxGeometry width="160" relative="1" as="geometry">
            <mxPoint x="440" y="630" as="sourcePoint" />
            <mxPoint x="580" y="560" as="targetPoint" />
          </mxGeometry>
        </mxCell>
        <mxCell id="rtIWODCKq_-6XiSgHXo_-16" value="CustomDataset" style="swimlane;fontStyle=1;align=center;verticalAlign=top;childLayout=stackLayout;horizontal=1;startSize=26;horizontalStack=0;resizeParent=1;resizeParentMax=0;resizeLast=0;collapsible=1;marginBottom=0;whiteSpace=wrap;html=1;" vertex="1" parent="1">
          <mxGeometry x="220" y="190" width="280" height="130" as="geometry" />
        </mxCell>
        <mxCell id="rtIWODCKq_-6XiSgHXo_-17" value="+ data: List[Any]&lt;br&gt;+ stage: str&lt;br&gt;+ transforms: Transforms" style="text;strokeColor=none;fillColor=none;align=left;verticalAlign=top;spacingLeft=4;spacingRight=4;overflow=hidden;rotatable=0;points=[[0,0.5],[1,0.5]];portConstraint=eastwest;whiteSpace=wrap;html=1;" vertex="1" parent="rtIWODCKq_-6XiSgHXo_-16">
          <mxGeometry y="26" width="280" height="54" as="geometry" />
        </mxCell>
        <mxCell id="rtIWODCKq_-6XiSgHXo_-18" value="" style="line;strokeWidth=1;fillColor=none;align=left;verticalAlign=middle;spacingTop=-1;spacingLeft=3;spacingRight=3;rotatable=0;labelPosition=right;points=[];portConstraint=eastwest;strokeColor=inherit;" vertex="1" parent="rtIWODCKq_-6XiSgHXo_-16">
          <mxGeometry y="80" width="280" height="8" as="geometry" />
        </mxCell>
        <mxCell id="rtIWODCKq_-6XiSgHXo_-19" value="+ apply_transforms(Any): str&lt;br&gt;+ __getitem__(Union[int, slice]): Union[str, List[str]]" style="text;strokeColor=none;fillColor=none;align=left;verticalAlign=top;spacingLeft=4;spacingRight=4;overflow=hidden;rotatable=0;points=[[0,0.5],[1,0.5]];portConstraint=eastwest;whiteSpace=wrap;html=1;" vertex="1" parent="rtIWODCKq_-6XiSgHXo_-16">
          <mxGeometry y="88" width="280" height="42" as="geometry" />
        </mxCell>
        <mxCell id="rtIWODCKq_-6XiSgHXo_-20" value="" style="endArrow=open;html=1;endSize=12;startArrow=diamondThin;startSize=14;startFill=0;edgeStyle=orthogonalEdgeStyle;align=left;verticalAlign=bottom;rounded=0;entryX=0.357;entryY=0;entryDx=0;entryDy=0;entryPerimeter=0;" edge="1" parent="1">
          <mxGeometry x="-1" y="3" relative="1" as="geometry">
            <mxPoint x="379.5" y="320" as="sourcePoint" />
            <mxPoint x="379.98" y="470" as="targetPoint" />
            <Array as="points">
              <mxPoint x="380" y="370" />
              <mxPoint x="380" y="370" />
            </Array>
          </mxGeometry>
        </mxCell>
      </root>
    </mxGraphModel>
  </diagram>
</mxfile>
